# xmcd
#
# Track frame offsets: 
#        150
#        19045
#        35687
#        52992
#        71080
#        85325
#        97895
#        115735
#        129160
#        144530
#        159175
#        173937
#        205690
#        218105
#        232895
#        251427
#        269797
#        281790
#        290550
#        303692
#
# Disc length: 4274 seconds
#
# Revision: 1
# Processed by: cddbd v1.5.2PL0 Copyright (c) Steve Scherf et al.
# Submitted via: ExactAudioCopyFreeDBPlugin 1.0
#
DISCID=2210b014
DTITLE=Various Artist - Country balady III
DYEAR=2000
DGENRE=Country
TTITLE0=Stárnoucí mladík [Pavel Bobek]
TTITLE1=Sto mil od Detroit City [Noví Zelenáči Mirka Hoffmanna]
TTITLE2=Paní má se má [Fešáci]
TTITLE3=Tam nad tou hrází [Waldemar Matuška and KTO]
TTITLE4=Rodičovské sdružení [Naďa Urbánková and Country Beat]
TTITLE5=Starý muž s kytarou [Fešáci]
TTITLE6=Battledres [Jan Vyčítal and Greenhorns]
TTITLE7=Sám se svou kytarou [Karel Zich]
TTITLE8=Sedm španělských andělů [Tomáš Linka, Pavel Král and Greenhorns]
TTITLE9=Dlouhán Frankie [Brontosauři]
TTITLE10=Já a můj náklaďák [Vratislav Vyskočil and Krajánci]
TTITLE11=Kluk a strom [Miroslav Černý]
TTITLE12=Háj modřínů [Karel Kahovec]
TTITLE13=Matka [Eva Olmerová]
TTITLE14=Něco o lásce [Pavel Dobeš]
TTITLE15=Nad vodou svítá [KTO]
TTITLE16=Sluneční spár [Ladislav Vodička]
TTITLE17=Matterhorn [Fešáci]
TTITLE18=Mistře Buriane, díky za ten svět [Josef Šimek and Greenhorns]
TTITLE19=Béčko z okresního města [Ivan Hovorka and Country Beat]
EXTD=YEAR: 2000
EXTT0=
EXTT1=
EXTT2=
EXTT3=
EXTT4=
EXTT5=
EXTT6=
EXTT7=
EXTT8=
EXTT9=
EXTT10=
EXTT11=
EXTT12=
EXTT13=
EXTT14=
EXTT15=
EXTT16=
EXTT17=
EXTT18=
EXTT19=
PLAYORDER=
